<svg xmlns="http://www.w3.org/2000/svg" viewBox="0 0 484.77 162.91"><defs><style>.cls-1{fill:#fff;}</style></defs><title>Asset 1</title><g id="Layer_2" data-name="Layer 2"><g id="Layer_1-2" data-name="Layer 1"><path class="cls-1" d="M122.84,114.6V88.09l-12.47-6.92L79.25,99.47l-11.88-7v63.43l11.88,7,79.26-46.64V93.62ZM109,118.23l-15.85,9.33V109.44l11.34-6.68,4.51,2.51Z"/><polygon class="cls-1" points="138.69 13.99 103.03 34.98 43.59 0 23.78 11.66 103.03 58.29 103.03 71.89 158.51 39.24 158.51 25.65 138.69 13.99"/><polygon class="cls-1" points="47.55 39.64 35.66 46.63 35.66 82.89 19.81 73.56 19.81 37.31 31.7 30.31 11.89 18.65 0 25.65 0 116.27 19.81 127.93 19.81 91.68 35.66 101.01 35.66 137.26 55.48 148.92 55.48 58.29 67.37 51.3 47.55 39.64"/><path class="cls-1" d="M208,74.69h-7.8v-39H208v15.6h15.58V35.71h7.8v39h-7.8V59.11H208Z"/><path class="cls-1" d="M265.94,74.69h-27.3v-39h7.81V66.89h19.49Z"/><path class="cls-1" d="M277.79,74.69H270v-39h15.6a15.22,15.22,0,0,1,7.84,2.13,15.73,15.73,0,0,1,7.18,9.34A15.57,15.57,0,0,1,300,57.36a15.67,15.67,0,0,1-8.31,8.3,15,15,0,0,1-6.05,1.23h-7.8Zm0-31.18v15.6h7.8a7.48,7.48,0,0,0,3-.61,7.8,7.8,0,0,0,4.14-4.16,7.71,7.71,0,0,0,0-6.06,7.8,7.8,0,0,0-4.14-4.16,7.48,7.48,0,0,0-3-.61Z"/><path class="cls-1" d="M319,47.4a11.3,11.3,0,0,1,.92-4.54,12.11,12.11,0,0,1,2.52-3.72,11.92,11.92,0,0,1,3.71-2.51,11.13,11.13,0,0,1,4.54-.92h17.89v7.8H330.72a3.82,3.82,0,0,0-1.52.3,3.65,3.65,0,0,0-1.24.83,3.83,3.83,0,0,0-1.13,2.76,3.94,3.94,0,0,0,.3,1.53,3.85,3.85,0,0,0,.83,1.25,3.65,3.65,0,0,0,1.24.83,3.82,3.82,0,0,0,1.52.3h7.8a11.41,11.41,0,0,1,4.55.91,11.59,11.59,0,0,1,6.23,6.23,11.81,11.81,0,0,1,0,9.09,11.71,11.71,0,0,1-6.23,6.22,11.26,11.26,0,0,1-4.55.93H321.2v-7.8h17.32a3.85,3.85,0,0,0,1.52-.3,3.91,3.91,0,0,0,1.24-.83,4,4,0,0,0,.83-1.24,4,4,0,0,0,0-3A3.84,3.84,0,0,0,340,59.41a3.85,3.85,0,0,0-1.52-.3h-7.8a11.3,11.3,0,0,1-4.54-.92A11.92,11.92,0,0,1,320,52,11.42,11.42,0,0,1,319,47.4Z"/><path class="cls-1" d="M368.64,74.69a12.67,12.67,0,0,1-5.06-1,13.15,13.15,0,0,1-6.94-7,12.59,12.59,0,0,1-1-5V53H352V45.63h3.62V34H363V45.63h11.26V53H363v8.65a5.53,5.53,0,0,0,.44,2.19,5.85,5.85,0,0,0,1.19,1.78,5.93,5.93,0,0,0,1.8,1.21,5.61,5.61,0,0,0,2.2.44h5.63v7.4Z"/><path class="cls-1" d="M399.82,71.29a20.87,20.87,0,0,1-1.92,1.54,15.21,15.21,0,0,1-2.13,1.25,13.47,13.47,0,0,1-2.3.84,9.3,9.3,0,0,1-2.4.31,13.51,13.51,0,0,1-5.06-1,12.27,12.27,0,0,1-6.94-7,14.91,14.91,0,0,1-1-5.64V45.57h7.39v16.1a7.16,7.16,0,0,0,.45,2.62,5.66,5.66,0,0,0,1.21,1.94,5,5,0,0,0,1.78,1.2,5.88,5.88,0,0,0,2.19.41,4.66,4.66,0,0,0,2.16-.53,6.2,6.2,0,0,0,1.78-1.4,6.94,6.94,0,0,0,1.2-2,6.35,6.35,0,0,0,.43-2.27V45.57h7.42V74.69h-1.79Z"/><path class="cls-1" d="M437.85,74.69h-1.79l-2.88-4a22.84,22.84,0,0,1-2.25,1.78,15,15,0,0,1-2.48,1.44,15.64,15.64,0,0,1-2.68,1,11.47,11.47,0,0,1-2.79.35,14.61,14.61,0,0,1-10.5-4.36,14.94,14.94,0,0,1-3.2-4.87,16.59,16.59,0,0,1,0-12.24,15.07,15.07,0,0,1,3.2-4.9,14.68,14.68,0,0,1,4.73-3.23A14.34,14.34,0,0,1,423,44.46a13.09,13.09,0,0,1,2,.16,11.34,11.34,0,0,1,2,.53,8.66,8.66,0,0,1,1.86,1,5.71,5.71,0,0,1,1.47,1.47V34h7.47Zm-7.47-14.82a7.76,7.76,0,0,0-.59-2.95,8.42,8.42,0,0,0-1.59-2.52,7.7,7.7,0,0,0-2.35-1.77A6.31,6.31,0,0,0,423,52a7.48,7.48,0,0,0-2.87.55,6.73,6.73,0,0,0-2.33,1.56,7.2,7.2,0,0,0-1.57,2.49,9.08,9.08,0,0,0-.57,3.31,8.22,8.22,0,0,0,.57,3.05,8.11,8.11,0,0,0,1.57,2.53,7.44,7.44,0,0,0,2.33,1.71,6.71,6.71,0,0,0,2.87.62,6.43,6.43,0,0,0,2.87-.66,8,8,0,0,0,2.35-1.77,8.47,8.47,0,0,0,1.59-2.53A7.69,7.69,0,0,0,430.38,59.87Z"/><path class="cls-1" d="M452.26,37.66a4.76,4.76,0,0,1-.39,1.93,5.23,5.23,0,0,1-1.08,1.57,5.33,5.33,0,0,1-1.59,1.06,5,5,0,0,1-3.89,0,5.23,5.23,0,0,1-1.57-1.06,5,5,0,0,1-1.06-1.57,4.81,4.81,0,0,1,0-3.84,4.83,4.83,0,0,1,1.06-1.58,5.05,5.05,0,0,1,1.57-1.06,5,5,0,0,1,3.89,0,5.15,5.15,0,0,1,1.59,1.06,5,5,0,0,1,1.08,1.58A4.76,4.76,0,0,1,452.26,37.66Zm-1.28,37h-7.47V45.57H451Z"/><path class="cls-1" d="M484.77,59.87A15.68,15.68,0,0,1,483.6,66a15.17,15.17,0,0,1-3.18,4.86,14.89,14.89,0,0,1-4.71,3.24,14.34,14.34,0,0,1-5.81,1.18,14.18,14.18,0,0,1-5.77-1.18A15,15,0,0,1,456.2,66,15.68,15.68,0,0,1,455,59.87a15.88,15.88,0,0,1,1.17-6.14,14.88,14.88,0,0,1,3.2-4.88,14.65,14.65,0,0,1,4.73-3.22,14.34,14.34,0,0,1,5.77-1.17,15.36,15.36,0,0,1,5.81,1.1,14,14,0,0,1,4.71,3.13,14.85,14.85,0,0,1,3.18,4.86A16.47,16.47,0,0,1,484.77,59.87Zm-7.47,0a8.67,8.67,0,0,0-.59-3.25,7.85,7.85,0,0,0-1.59-2.5,6.91,6.91,0,0,0-2.35-1.6,7.63,7.63,0,0,0-5.74,0,6.83,6.83,0,0,0-2.33,1.6,7.64,7.64,0,0,0-1.57,2.5,8.87,8.87,0,0,0-.57,3.25,8.42,8.42,0,0,0,.57,3.13,7.74,7.74,0,0,0,1.57,2.5A7.32,7.32,0,0,0,467,67.17a6.85,6.85,0,0,0,2.87.61,7.28,7.28,0,0,0,2.87-.57,7.06,7.06,0,0,0,2.35-1.6,7.54,7.54,0,0,0,1.59-2.5A8.69,8.69,0,0,0,477.3,59.87Z"/><path class="cls-1" d="M218.17,107.26h-4V93.08a2,2,0,0,0-.16-.78,2.13,2.13,0,0,0-.43-.63,1.93,1.93,0,0,0-.63-.42,2,2,0,0,0-.78-.15,2,2,0,0,0-.77.15,1.93,1.93,0,0,0-.63.42,2,2,0,0,0-.43.63,2,2,0,0,0-.15.78v14.18h-4V93.08a1.85,1.85,0,0,0-.16-.78,1.93,1.93,0,0,0-1-1,2.08,2.08,0,0,0-1.55,0,1.93,1.93,0,0,0-1.05,1,2,2,0,0,0-.15.78v14.18h-4V93.08a5.9,5.9,0,0,1,1.74-4.22,5.92,5.92,0,0,1,1.9-1.27,5.92,5.92,0,0,1,4.45-.07,5.67,5.67,0,0,1,1.84,1.14,5.9,5.9,0,0,1,4-1.54,5.83,5.83,0,0,1,2.32.47,5.86,5.86,0,0,1,3.17,3.17,5.83,5.83,0,0,1,.47,2.32Z"/><path class="cls-1" d="M235.5,107.26h-.91l-1.47-2a11.09,11.09,0,0,1-1.14.91,8.61,8.61,0,0,1-2.63,1.23,5.7,5.7,0,0,1-1.42.18A8.16,8.16,0,0,1,225,107a6.89,6.89,0,0,1-2.41-1.53A7.2,7.2,0,0,1,221,103a8.61,8.61,0,0,1-.6-3.31,8.26,8.26,0,0,1,.6-3.18,7.59,7.59,0,0,1,1.63-2.48A7.26,7.26,0,0,1,225,92.43a7.59,7.59,0,0,1,2.94-.57,5.84,5.84,0,0,1,1.43.18,7.77,7.77,0,0,1,1.37.5,8.05,8.05,0,0,1,1.26.75,9.25,9.25,0,0,1,1.13.92l1.47-1.76h.91Zm-3.8-7.55a3.86,3.86,0,0,0-.3-1.5,4.4,4.4,0,0,0-.81-1.29,4.11,4.11,0,0,0-1.2-.9,3.2,3.2,0,0,0-1.46-.34,4.11,4.11,0,0,0-1.46.26,3.33,3.33,0,0,0-1.19.78,3.49,3.49,0,0,0-.8,1.27,4.84,4.84,0,0,0-.29,1.72,4.9,4.9,0,0,0,.29,1.73,3.53,3.53,0,0,0,.8,1.26,3.33,3.33,0,0,0,1.19.78,4.11,4.11,0,0,0,1.46.26,3.2,3.2,0,0,0,1.46-.34,3.79,3.79,0,0,0,1.2-.9,4.27,4.27,0,0,0,.81-1.29A3.86,3.86,0,0,0,231.7,99.71Z"/><path class="cls-1" d="M242.19,107.26h-3.81V86.53h3.81V99.6l5.64-7.15h4.35l-4.92,6.18,4.92,8.63h-4.35l-3-5.39-2.63,3.49Z"/><path class="cls-1" d="M259.12,103.63a1.64,1.64,0,0,0,.44.09l.44,0a3.69,3.69,0,0,0,2-.59,3.52,3.52,0,0,0,.8-.69,3.44,3.44,0,0,0,.58-.91l2.77,2.79a7.59,7.59,0,0,1-2.69,2.35,7.25,7.25,0,0,1-1.68.63,7.8,7.8,0,0,1-1.81.22,7.46,7.46,0,0,1-2.94-.59,7.21,7.21,0,0,1-2.41-1.62,7.54,7.54,0,0,1-1.63-2.47,8.22,8.22,0,0,1-.59-3.15A8.53,8.53,0,0,1,253,96.5a7.26,7.26,0,0,1,4-4.07,7.62,7.62,0,0,1,2.94-.57,7.37,7.37,0,0,1,1.82.22,7.57,7.57,0,0,1,1.68.64,7,7,0,0,1,1.49,1,7.45,7.45,0,0,1,1.22,1.35Zm1.94-7.8a2.59,2.59,0,0,0-.52-.12,4.75,4.75,0,0,0-.54,0,3.8,3.8,0,0,0-1.46.29,3.23,3.23,0,0,0-1.19.81,3.88,3.88,0,0,0-.8,1.26,4.64,4.64,0,0,0-.29,1.67c0,.14,0,.3,0,.47s0,.36.07.54.08.35.12.51a2.34,2.34,0,0,0,.18.45Z"/><path class="cls-1" d="M285.37,107.26h-4V101A7.69,7.69,0,0,1,279,100a7.52,7.52,0,0,1-1.89-1.75,7.85,7.85,0,0,1-1.67-4.87V87.4h4v5.95a3.87,3.87,0,0,0,.31,1.55,4.1,4.1,0,0,0,.85,1.27,4,4,0,0,0,1.27.85,3.82,3.82,0,0,0,1.54.31,3.87,3.87,0,0,0,1.55-.31,4.06,4.06,0,0,0,1.26-.85,4.13,4.13,0,0,0,.86-1.27,4,4,0,0,0,.31-1.55V87.4h4v5.95a7.87,7.87,0,0,1-.44,2.62,8.17,8.17,0,0,1-1.22,2.25,7.88,7.88,0,0,1-1.89,1.75,7.59,7.59,0,0,1-2.41,1.07Z"/><path class="cls-1" d="M307.39,99.71a8.15,8.15,0,0,1-.59,3.1,8,8,0,0,1-1.62,2.48,7.74,7.74,0,0,1-2.41,1.64,7.44,7.44,0,0,1-5.9,0,7.86,7.86,0,0,1-2.41-1.64,7.78,7.78,0,0,1-1.62-2.48,8,8,0,0,1-.6-3.1,8.08,8.08,0,0,1,.6-3.13,7.56,7.56,0,0,1,1.62-2.48,7.72,7.72,0,0,1,2.41-1.65,7.47,7.47,0,0,1,2.95-.59,7.78,7.78,0,0,1,2.95.56A7.28,7.28,0,0,1,305.18,94a7.72,7.72,0,0,1,1.62,2.48A8.55,8.55,0,0,1,307.39,99.71Zm-3.81,0a4.53,4.53,0,0,0-.29-1.65,4,4,0,0,0-.81-1.28,3.49,3.49,0,0,0-1.2-.81,3.8,3.8,0,0,0-1.46-.29,3.73,3.73,0,0,0-1.46.29,3.27,3.27,0,0,0-1.19.81,3.81,3.81,0,0,0-.8,1.28,4.53,4.53,0,0,0-.29,1.65,4.36,4.36,0,0,0,.29,1.59,3.91,3.91,0,0,0,.8,1.28,3.64,3.64,0,0,0,1.19.85,3.42,3.42,0,0,0,1.46.31,3.8,3.8,0,0,0,1.46-.29,3.66,3.66,0,0,0,1.2-.82,3.84,3.84,0,0,0,.81-1.27A4.61,4.61,0,0,0,303.58,99.71Z"/><path class="cls-1" d="M320.38,105.53a10.67,10.67,0,0,1-1,.78,7.06,7.06,0,0,1-1.09.64,7.15,7.15,0,0,1-1.17.43,5.06,5.06,0,0,1-1.23.16,6.87,6.87,0,0,1-2.57-.49,6.13,6.13,0,0,1-2.11-1.38,6.32,6.32,0,0,1-1.43-2.17,7.49,7.49,0,0,1-.52-2.87v-8.2h3.77v8.2a3.5,3.5,0,0,0,.23,1.33,2.91,2.91,0,0,0,.61,1,2.56,2.56,0,0,0,.91.61,2.92,2.92,0,0,0,1.11.21,2.33,2.33,0,0,0,1.1-.27,3.15,3.15,0,0,0,.91-.71,3.45,3.45,0,0,0,.61-1,3.05,3.05,0,0,0,.22-1.15v-8.2h3.78v14.83h-.91Z"/><path class="cls-1" d="M329.2,107.26h-3.78V92.43h.92l1.24,1.76a6.78,6.78,0,0,1,2.08-1.29,6.86,6.86,0,0,1,2.41-.45h3.34v3.77h-3.34a3,3,0,0,0-1.12.22A2.8,2.8,0,0,0,329.43,98a2.8,2.8,0,0,0-.23,1.12Z"/><path class="cls-1" d="M361.42,97.33a9.67,9.67,0,0,1-.36,2.64,9.84,9.84,0,0,1-2.55,4.37,9.51,9.51,0,0,1-2,1.56,9.77,9.77,0,0,1-5,1.36h-6V87.4h6a9.77,9.77,0,0,1,5,1.36,9.51,9.51,0,0,1,2,1.56,9.84,9.84,0,0,1,2.55,4.37A9.67,9.67,0,0,1,361.42,97.33Zm-4,0A5.78,5.78,0,0,0,357,95a6,6,0,0,0-3.17-3.17,5.7,5.7,0,0,0-2.32-.48h-2v11.91h2a5.86,5.86,0,0,0,2.32-.46,6,6,0,0,0,1.89-1.27,6.06,6.06,0,0,0,1.28-1.9A5.86,5.86,0,0,0,357.44,97.33Z"/><path class="cls-1" d="M367.43,107.26h-3.78V92.43h.91l1.25,1.76a6.74,6.74,0,0,1,2.07-1.29,6.86,6.86,0,0,1,2.41-.45h3.34v3.77h-3.34a3,3,0,0,0-1.12.22,2.85,2.85,0,0,0-.91.61,2.9,2.9,0,0,0-.61.92,2.8,2.8,0,0,0-.22,1.12Z"/><path class="cls-1" d="M381,103.63a1.8,1.8,0,0,0,.45.09l.44,0a3.73,3.73,0,0,0,2.83-1.28,3.44,3.44,0,0,0,.58-.91l2.76,2.79a7.34,7.34,0,0,1-1.21,1.34,7.45,7.45,0,0,1-1.48,1,7.17,7.17,0,0,1-1.67.63,7.8,7.8,0,0,1-1.81.22A7.42,7.42,0,0,1,379,107a7.11,7.11,0,0,1-2.41-1.62,7.54,7.54,0,0,1-1.63-2.47,8,8,0,0,1-.6-3.15,8.34,8.34,0,0,1,.6-3.21,7.26,7.26,0,0,1,4-4.07,7.59,7.59,0,0,1,2.94-.57,7.29,7.29,0,0,1,1.81.22,7.84,7.84,0,0,1,1.69.64,7,7,0,0,1,1.48,1,7.1,7.1,0,0,1,1.22,1.35Zm1.94-7.8a2.44,2.44,0,0,0-.52-.12,4.58,4.58,0,0,0-.53,0,3.73,3.73,0,0,0-1.46.29,3.15,3.15,0,0,0-1.19.81,3.72,3.72,0,0,0-.8,1.26,4.64,4.64,0,0,0-.29,1.67c0,.14,0,.3,0,.47a5,5,0,0,0,.07.54,3.81,3.81,0,0,0,.12.51,1.51,1.51,0,0,0,.18.45Z"/><path class="cls-1" d="M404.25,107.26h-.91l-1.47-2a11.09,11.09,0,0,1-1.14.91,8.5,8.5,0,0,1-1.27.73,7.49,7.49,0,0,1-1.37.5,5.58,5.58,0,0,1-1.42.18,8.2,8.2,0,0,1-2.94-.53,6.91,6.91,0,0,1-4-4,8.61,8.61,0,0,1-.6-3.31,8.26,8.26,0,0,1,.6-3.18,7.38,7.38,0,0,1,4-4.1,7.62,7.62,0,0,1,2.94-.57,5.72,5.72,0,0,1,1.43.18,7.49,7.49,0,0,1,1.37.5,7.71,7.71,0,0,1,1.27.75,10.07,10.07,0,0,1,1.13.92l1.47-1.76h.91Zm-3.81-7.55a3.86,3.86,0,0,0-.3-1.5,4,4,0,0,0-.81-1.29,4.2,4.2,0,0,0-1.19-.9,3.24,3.24,0,0,0-1.47-.34,4.19,4.19,0,0,0-1.46.26,3.51,3.51,0,0,0-1.19.78,3.61,3.61,0,0,0-.79,1.27,4.63,4.63,0,0,0-.29,1.72,4.69,4.69,0,0,0,.29,1.73,3.66,3.66,0,0,0,.79,1.26,3.51,3.51,0,0,0,1.19.78,4.19,4.19,0,0,0,1.46.26,3.24,3.24,0,0,0,1.47-.34,3.86,3.86,0,0,0,1.19-.9,3.92,3.92,0,0,0,.81-1.29A3.86,3.86,0,0,0,400.44,99.71Z"/><path class="cls-1" d="M426,107.26h-3.76V97.84a1.8,1.8,0,0,0-.15-.73,1.91,1.91,0,0,0-1-1,1.85,1.85,0,0,0-1.46,0,1.74,1.74,0,0,0-.59.41,1.82,1.82,0,0,0-.41.61,2,2,0,0,0-.14.73v9.42h-3.78V97.84a1.8,1.8,0,0,0-.15-.73,1.69,1.69,0,0,0-.41-.61,1.73,1.73,0,0,0-.61-.41,1.85,1.85,0,0,0-1.46,0,1.84,1.84,0,0,0-.59.41,2,2,0,0,0-.55,1.34v9.42h-3.78V92.43H408l1,1.13a6.25,6.25,0,0,1,1.74-1,5.45,5.45,0,0,1,4,0,4.13,4.13,0,0,1,1.74,1.35,3.58,3.58,0,0,1,.79-.81,4.34,4.34,0,0,1,.93-.54,4.59,4.59,0,0,1,1-.3,6.18,6.18,0,0,1,1-.09,5.49,5.49,0,0,1,2.21.45,5.82,5.82,0,0,1,1.8,1.21,5.68,5.68,0,0,1,1.65,4Z"/><path class="cls-1" d="M436.89,107.26h-8.64v-3.77h8.64a.92.92,0,0,0,.94-.94.53.53,0,0,0-.27-.53,1.71,1.71,0,0,0-.67-.12H433a4.69,4.69,0,0,1-1.84-.37,4.75,4.75,0,0,1-1.5-1,4.81,4.81,0,0,1-1-1.5,4.6,4.6,0,0,1-.37-1.85,4.55,4.55,0,0,1,.37-1.84,4.65,4.65,0,0,1,1-1.49A4.71,4.71,0,0,1,433,92.45h7.66v3.77H433a.94.94,0,0,0-.94.94,1,1,0,0,0,.27.69.91.91,0,0,0,.67.28h3.93a5,5,0,0,1,1.83.33,4.75,4.75,0,0,1,1.5.91,4.21,4.21,0,0,1,1.38,3.18,4.52,4.52,0,0,1-.37,1.84,5.1,5.1,0,0,1-1,1.49,4.67,4.67,0,0,1-1.5,1A4.5,4.5,0,0,1,436.89,107.26Z"/><path class="cls-1" d="M465.39,101.3a5.8,5.8,0,0,1-.47,2.32,6,6,0,0,1-1.28,1.89,6.19,6.19,0,0,1-1.89,1.28,5.78,5.78,0,0,1-2.31.47h-7.95v-4h7.95a2,2,0,0,0,.77-.15,1.93,1.93,0,0,0,.63-.42,2.13,2.13,0,0,0,.43-.63,2.08,2.08,0,0,0,0-1.55,2.13,2.13,0,0,0-.43-.63,1.93,1.93,0,0,0-.63-.42,1.83,1.83,0,0,0-.77-.16H454v-4h5.42a2,2,0,0,0,.77-.15,2,2,0,0,0,.63-.43,2.13,2.13,0,0,0,.43-.63,2.09,2.09,0,0,0,.15-.79,2,2,0,0,0-.15-.77,2.13,2.13,0,0,0-.43-.63,1.93,1.93,0,0,0-.63-.42,2,2,0,0,0-.77-.16h-7.95v-4h7.95a5.78,5.78,0,0,1,2.31.47A6,6,0,0,1,464.92,91a5.89,5.89,0,0,1,.07,4.44,6.09,6.09,0,0,1-1.14,1.85A6,6,0,0,1,465,99.18,5.74,5.74,0,0,1,465.39,101.3Z"/><path class="cls-1" d="M484.5,97.33a9.66,9.66,0,0,1-.35,2.64,9.74,9.74,0,0,1-2.56,4.37,9.45,9.45,0,0,1-2,1.56,9.85,9.85,0,0,1-2.38,1,10,10,0,0,1-2.64.35h-6V87.4h6a10,10,0,0,1,2.64.35,9.85,9.85,0,0,1,2.38,1,9.45,9.45,0,0,1,2,1.56,9.74,9.74,0,0,1,2.56,4.37A9.66,9.66,0,0,1,484.5,97.33Zm-4,0a6,6,0,0,0-1.74-4.2,6,6,0,0,0-1.9-1.28,5.64,5.64,0,0,0-2.32-.48h-2v11.91h2a5.79,5.79,0,0,0,2.32-.46,6,6,0,0,0,3.64-5.49Z"/></g></g></svg>