<svg version="1.1" id="Layer_1" xmlns="http://www.w3.org/2000/svg" xmlns:xlink="http://www.w3.org/1999/xlink" x="0px" y="0px"
	 viewBox="0 0 115.204 20.304" style="enable-background:new 0 0 115.204 20.304;" xml:space="preserve">
<style type="text/css">
	.st0{fill:#12100B;}
	.st1{fill:none;}
	.st2{fill:#41748D;}
	.st3{fill:#FFFFFF;}
</style>
<path class="st0" d="M88.252,18.652c2.8,0,4.8-0.7,6.1-2.1c1.3-1.4,2-3.5,2-6.4c0-2.8-0.7-5-2-6.4s-3.4-2-6.1-2
	c-2.8,0-4.8,0.7-6.1,2c-1.3,1.4-2,3.5-2,6.2c0,3,0.7,5.2,2,6.5C83.452,17.952,85.452,18.652,88.252,18.652z M84.952,5.852
	c0.7-0.9,1.8-1.4,3.3-1.4s2.6,0.4,3.3,1.4c0.7,0.9,1.1,2.4,1.1,4.3s-0.4,3.3-1.1,4.3c-0.7,0.9-1.8,1.4-3.3,1.4s-2.6-0.5-3.3-1.4
	c-0.7-0.9-1.1-2.4-1.1-4.4C83.952,8.152,84.252,6.752,84.952,5.852z"/>
<polygon class="st0" points="102.152,5.952 109.152,18.352 113.152,18.352 113.152,2.052 109.552,2.052 109.752,13.752 
	103.052,2.052 98.752,2.052 98.752,18.352 102.252,18.352 "/>
<path class="st0" d="M23.852,16.552c0.6,0.6,1.2,1.1,2,1.3c0.8,0.3,1.9,0.4,3.4,0.4l0,0h4.3v-2.7h-4.1c-0.8,0-1.5-0.1-2-0.2
	c-0.5-0.2-0.9-0.4-1.2-0.8c-0.2-0.2-0.4-0.5-0.4-0.9c-0.1-0.4-0.1-1.1-0.1-2v-9.6h-3.4v9.7c0,1.3,0.1,2.3,0.4,3
	C22.952,15.352,23.352,16.052,23.852,16.552z"/>
<path class="st0" d="M35.952,16.252c0.7,0.8,1.5,1.3,2.4,1.7c1,0.4,2.2,0.5,3.7,0.5s2.7-0.2,3.7-0.5c1-0.4,1.8-0.9,2.4-1.7
	c0.4-0.4,0.6-0.9,0.7-1.6c0.2-0.7,0.2-1.6,0.2-2.8v-9.8h-3.4v9.7c0,1.5-0.3,2.6-0.8,3.2c-0.6,0.6-1.5,0.9-2.8,0.9
	c-1.4,0-2.3-0.3-2.8-0.9c-0.5-0.6-0.8-1.6-0.8-3.2v-9.7h-3.4v9.8c0,1.2,0.1,2.1,0.2,2.8C35.352,15.352,35.652,15.852,35.952,16.252z
	"/>
<polygon class="st0" points="55.952,18.352 55.652,5.452 59.952,18.352 63.552,18.352 67.752,5.652 67.452,18.352 70.852,18.352 
	70.852,2.052 65.752,2.052 61.652,14.552 57.552,2.052 52.452,2.052 52.452,18.352 "/>
<rect x="74.252" y="2.052" class="st0" width="3.6" height="16.3"/>
<rect x="0.052" y="0.052" class="st1" width="115.1" height="20.3"/>
<g>
	<g>
		<path class="st2" d="M18.248,2.057v16.196H8.158c0.022-0.359,0.044-0.731,0.089-1.099c0.071-0.576,0.151-1.081,0.332-1.715
			c0.035-0.133,0.097-0.164,0.213-0.142C9,15.328,9.204,15.354,9.412,15.39c0.035,0.004,0.08,0.027,0.093,0.058
			c0.128,0.244,0.346,0.363,0.589,0.448c0.328,0.106,0.651,0.093,0.993,0.035c0.824-0.142,1.586-0.425,2.309-0.82
			c0.669-0.368,1.258-0.864,1.772-1.427c0.31-0.341,0.603-0.7,0.931-1.086c-0.115-0.027-0.173-0.049-0.235-0.053
			c-0.359-0.035-0.718-0.089-1.072-0.089c-0.514-0.009-1.032-0.027-1.529,0.044c-1.019,0.155-1.976,0.501-2.845,1.063
			c-0.523,0.337-1.015,0.713-1.081,1.422c-0.182-0.018-0.332-0.022-0.518-0.053c-0.08-0.013-0.075-0.097-0.066-0.133
			c0.102-0.319,0.195-0.638,0.323-0.939c0.284-0.669,0.58-1.338,0.895-1.994c0.284-0.603,0.585-1.196,0.891-1.786
			c0.381-0.731,0.789-1.449,1.17-2.18c0.301-0.598,0.589-1.205,0.873-1.812c0.31-0.665,0.545-1.351,0.718-2.06
			c0.164-0.647,0.261-1.307,0.292-1.972H18.248z"/>
	</g>
	<path class="st2" d="M13.125,2.052c-0.013,0.146-0.018,0.292-0.04,0.434c0,0.004,0,0.004,0,0.009c0,0.009-0.004,0.022-0.004,0.031
		c-0.004,0.022-0.009,0.044-0.013,0.058c-0.097,0.456-0.204,0.908-0.328,1.36c-0.23,0.842-0.594,1.635-1.001,2.406
		c-0.408,0.767-0.855,1.511-1.285,2.26c-0.155,0.261-0.315,0.518-0.479,0.789C9.789,9.288,9.607,9.191,9.434,9.075
		C9.399,9.053,9.363,8.974,9.381,8.938c0.195-0.425,0.151-0.86,0-1.276C9.226,7.228,9.031,6.811,8.832,6.39
		C8.579,5.863,8.234,5.389,7.83,4.963C7.511,4.627,7.157,4.312,6.789,4.033c-0.412-0.315-0.86-0.58-1.294-0.864
		C5.469,3.151,5.424,3.151,5.384,3.142C5.38,3.182,5.371,3.209,5.371,3.24C5.34,4.126,5.442,4.994,5.672,5.845
		C5.845,6.488,6.107,7.09,6.466,7.658c0.328,0.518,0.669,1.019,1.139,1.418C8.043,9.448,8.57,9.629,9.093,9.293
		c0.23,0.142,0.465,0.279,0.7,0.425C9.776,9.749,9.771,9.767,9.758,9.784c-0.363,0.669-0.749,1.329-1.094,2.007
		c-0.292,0.572-0.549,1.165-0.806,1.759c-0.323,0.762-0.572,1.551-0.762,2.357c-0.186,0.775-0.301,1.555-0.359,2.344H2.052v-16.2
		H13.125z"/>
	<path class="st3" d="M8.752,14.8c-0.009,0.035-0.013,0.12,0.066,0.133c0.186,0.031,0.337,0.035,0.518,0.053
		c0.066-0.709,0.558-1.086,1.081-1.422c0.868-0.563,1.826-0.908,2.845-1.063c0.496-0.071,1.015-0.053,1.529-0.044
		c0.354,0,0.713,0.053,1.072,0.089c0.062,0.004,0.12,0.027,0.235,0.053c-0.328,0.386-0.62,0.744-0.931,1.086
		c-0.514,0.563-1.103,1.059-1.772,1.427c-0.722,0.394-1.484,0.678-2.309,0.82c-0.341,0.058-0.665,0.071-0.993-0.035
		c-0.244-0.084-0.461-0.204-0.589-0.448c-0.013-0.031-0.058-0.053-0.093-0.058C9.204,15.354,9,15.328,8.792,15.297
		c-0.115-0.022-0.177,0.009-0.213,0.142c-0.182,0.634-0.261,1.139-0.332,1.715c-0.044,0.368-0.066,0.74-0.089,1.099H6.736
		c0.058-0.789,0.173-1.569,0.359-2.344c0.191-0.806,0.439-1.595,0.762-2.357c0.257-0.594,0.514-1.188,0.806-1.759
		c0.346-0.678,0.731-1.338,1.094-2.007c0.013-0.018,0.018-0.035,0.035-0.066c-0.235-0.146-0.47-0.284-0.7-0.425
		C8.57,9.629,8.043,9.448,7.604,9.075c-0.47-0.399-0.811-0.899-1.139-1.418c-0.359-0.567-0.62-1.17-0.793-1.812
		C5.442,4.994,5.34,4.126,5.371,3.24c0-0.031,0.009-0.058,0.013-0.097c0.04,0.009,0.084,0.009,0.111,0.027
		c0.434,0.284,0.882,0.549,1.294,0.864C7.157,4.312,7.511,4.627,7.83,4.963C8.234,5.389,8.579,5.863,8.832,6.39
		c0.199,0.421,0.394,0.837,0.549,1.272c0.151,0.417,0.195,0.851,0,1.276C9.363,8.974,9.399,9.053,9.434,9.075
		c0.173,0.115,0.355,0.213,0.541,0.323c0.164-0.27,0.323-0.527,0.479-0.789c0.43-0.749,0.877-1.493,1.285-2.26
		c0.408-0.771,0.771-1.564,1.001-2.406c0.124-0.452,0.23-0.904,0.328-1.36c0.004-0.013,0.009-0.035,0.013-0.058
		c0-0.009,0.004-0.022,0.004-0.031c0-0.004,0-0.004,0-0.009c0.022-0.142,0.027-0.288,0.04-0.434h5.122v0.004h-4.334
		c-0.031,0.665-0.129,1.325-0.292,1.972c-0.173,0.709-0.408,1.396-0.718,2.06c-0.284,0.607-0.572,1.214-0.873,1.812
		c-0.381,0.731-0.789,1.449-1.17,2.18c-0.306,0.589-0.607,1.183-0.891,1.786c-0.315,0.656-0.611,1.325-0.895,1.994
		C8.947,14.162,8.854,14.481,8.752,14.8z"/>
	<path class="st1" d="M13.125,2.052c-0.013,0.146-0.018,0.292-0.04,0.434c0,0.004,0,0.004,0,0.009c0,0.009-0.004,0.022-0.004,0.031
		c-0.004,0.022-0.009,0.044-0.013,0.058c-0.097,0.456-0.204,0.908-0.328,1.36c-0.23,0.842-0.594,1.635-1.001,2.406
		c-0.408,0.767-0.855,1.511-1.285,2.26c-0.155,0.261-0.315,0.518-0.479,0.789C9.789,9.288,9.607,9.191,9.434,9.075
		C9.399,9.053,9.363,8.974,9.381,8.938c0.195-0.425,0.151-0.86,0-1.276C9.226,7.228,9.031,6.811,8.832,6.39
		C8.579,5.863,8.234,5.389,7.83,4.963C7.511,4.627,7.157,4.312,6.789,4.033c-0.412-0.315-0.86-0.58-1.294-0.864
		C5.469,3.151,5.424,3.151,5.384,3.142C5.38,3.182,5.371,3.209,5.371,3.24C5.34,4.126,5.442,4.994,5.672,5.845
		C5.845,6.488,6.107,7.09,6.466,7.658c0.328,0.518,0.669,1.019,1.139,1.418C8.043,9.448,8.57,9.629,9.093,9.293
		c0.23,0.142,0.465,0.279,0.7,0.425C9.776,9.749,9.771,9.767,9.758,9.784c-0.363,0.669-0.749,1.329-1.094,2.007
		c-0.292,0.572-0.549,1.165-0.806,1.759c-0.323,0.762-0.572,1.551-0.762,2.357c-0.186,0.775-0.301,1.555-0.359,2.344H2.052v-16.2
		H13.125z"/>
	<path class="st1" d="M18.248,2.057v16.196H8.158c0.022-0.359,0.044-0.731,0.089-1.099c0.071-0.576,0.151-1.081,0.332-1.715
		c0.035-0.133,0.097-0.164,0.213-0.142C9,15.328,9.204,15.354,9.412,15.39c0.035,0.004,0.08,0.027,0.093,0.058
		c0.128,0.244,0.346,0.363,0.589,0.448c0.328,0.106,0.651,0.093,0.993,0.035c0.824-0.142,1.586-0.425,2.309-0.82
		c0.669-0.368,1.258-0.864,1.772-1.427c0.31-0.341,0.603-0.7,0.931-1.086c-0.115-0.027-0.173-0.049-0.235-0.053
		c-0.359-0.035-0.718-0.089-1.072-0.089c-0.514-0.009-1.032-0.027-1.529,0.044c-1.019,0.155-1.976,0.501-2.845,1.063
		c-0.523,0.337-1.015,0.713-1.081,1.422c-0.182-0.018-0.332-0.022-0.518-0.053c-0.08-0.013-0.075-0.097-0.066-0.133
		c0.102-0.319,0.195-0.638,0.323-0.939c0.284-0.669,0.58-1.338,0.895-1.994c0.284-0.603,0.585-1.196,0.891-1.786
		c0.381-0.731,0.789-1.449,1.17-2.18c0.301-0.598,0.589-1.205,0.873-1.812c0.31-0.665,0.545-1.351,0.718-2.06
		c0.164-0.647,0.261-1.307,0.292-1.972H18.248z"/>
</g>
</svg>
