<svg version="1.1" id="Layer_1" xmlns="http://www.w3.org/2000/svg" xmlns:xlink="http://www.w3.org/1999/xlink" x="0px" y="0px"
	   viewBox="0 0 295 105" enable-background="new 0 0 295 105" xml:space="preserve">
<g>
	<title>Logo-Vray-for-Cinema-4D</title>
	<path d="M103.33,20.084l-0.503-1.533c-0.194-0.498-0.525-1.932,1.38-1.932h6.834c1.083,0,1.311,1.007,1.52,1.52l11.286,32.559
		c0,0,0.87,2.879,1.587,2.879c0.719,0,1.656-2.879,1.656-2.879l11.079-32.546c0.161-0.926,0.995-1.583,1.932-1.52h6.364
		c1.773,0,1.705,1.015,1.52,1.52l-0.622,1.656l-19.327,56.007c-0.372,1.816-5.073,1.727-5.364,0L103.33,20.084z"/>
	<path d="M262.198,77.45l-19.983-59.363c-0.207-0.504-0.277-1.491,1.505-1.52h7.435c0.503,0,1.186,0.262,1.518,1.52
		c0,0,12.825,38.759,13.278,40.032c0.455,1.28,0.935,2.831,1.534,2.923c0.602,0.09,1.035-1.079,1.489-2.265
		c0.581-1.636,15.621-40.533,15.621-40.533c0.147-0.389,0.321-0.767,0.522-1.131c0.16-0.25,0.486-0.38,0.987-0.38h7.593
		c1.865,0,1.705,1.016,1.519,1.519l-26.919,69.264l-6.729,16.209c-0.132,0.385-0.336,0.745-0.601,1.056
		c-0.098,0.304-0.394,0.456-0.896,0.456h-6.849c-0.498,0.01-0.985-0.152-1.381-0.456c-0.303-0.208-0.345-0.553-0.152-1.056
		L262.198,77.45"/>
	<path d="M144.731,51.643c-0.013-1.373,0.505-2.697,1.449-3.693c1.001-1.034,2.384-1.609,3.824-1.588
		c2.885,0.073,5.205,2.397,5.273,5.281c0.021,1.438-0.554,2.823-1.588,3.822c-0.994,0.944-2.316,1.462-3.686,1.45
		c-2.859,0.056-5.219-2.218-5.273-5.077c0-0.063,0-0.125,0-0.188"/>
	<path d="M180.458,26.676c-1.198,0.545-2.315,1.259-3.313,2.119c-0.327,0.224-0.631,0.478-0.91,0.76l-0.76,0.76
		c-0.89,1.083-1.601,2.301-2.105,3.608c-0.715,1.668-1.071,3.467-1.05,5.281v36.202c0.11,0.729-0.39,1.409-1.116,1.518
		c-0.129,0.021-0.26,0.021-0.389,0.003h-6.032c-0.728,0.102-1.402-0.403-1.507-1.133c-0.019-0.127-0.017-0.258,0.002-0.388V39.21
		c0-1.415,0.102-2.825,0.304-4.224c0.292-1.571,0.803-3.093,1.519-4.522c1.128-2.705,2.771-5.165,4.831-7.249
		c2.043-2.034,4.444-3.673,7.082-4.833c2.311-0.895,4.725-1.495,7.185-1.788h1.656c12.184-0.275,17.945,7.345,19.535,8.751
		c0.624,0.52,0.711,1.446,0.192,2.071c-0.149,0.181-0.342,0.324-0.559,0.414l-5.363,1.463c-1.204,0.619-2.677,0.333-3.561-0.69
		c-4.538-3.283-10.445-4.006-15.642-1.912"/>
	<path d="M238.729,30.382c-1.144-2.672-2.782-5.104-4.831-7.165c-2.002-2.021-9.318-7.979-24.421-5.522
		c-1.479,0.566-1.243,1.47,0.206,2.899c0.601,0.594,3.085,3.354,3.947,4.044c1.685,1.346,2.645,1.188,3.285,1.154
		c13.405-0.739,14.563,11.526,14.563,13.433v0.414c-0.16,0.684-0.807,1.139-1.505,1.058h-14.495
		c-2.387-0.004-4.748,0.486-6.938,1.435c-2.15,0.92-4.115,2.226-5.797,3.853c-3.45,3.372-5.386,8-5.364,12.825
		c-0.003,2.374,0.483,4.724,1.429,6.903c1.865,4.379,5.353,7.866,9.732,9.733c2.183,0.964,4.538,1.472,6.924,1.483h23.537
		c0.73,0.099,1.4-0.412,1.499-1.142c0.016-0.121,0.016-0.242,0-0.365V39.205c0.021-3.034-0.588-6.037-1.794-8.821 M231.462,67.862
		h-16c-2.52-0.096-9.044-1.558-9.044-9.042c0-2.622,1.078-5.224,2.625-6.57c1.777-1.561,4.052-2.443,6.419-2.486h14.494
		c0.739-0.047,1.391,0.477,1.506,1.209V67.862L231.462,67.862z M87.633,21.554C80.661,9.971,68.237,2.145,54.433,0.501
		C48.416-0.034,42.35,0.433,36.487,1.882l0.248-0.083l-0.621,0.188c-2.776,0.734-5.472,1.745-8.048,3.016L27.81,5.142
		c-0.387,0.194-0.781,0.394-1.16,0.601C15.385,11.575,7.061,21.666,4.734,35.686c-4.142,24.96,10.354,48.959,35.512,53.838
		c24.029,4.842,47.433-10.715,52.273-34.742c0.067-0.325,0.127-0.65,0.187-0.977c2.389-11.631,0.607-24.27-5.081-32.235
		 M53.949,2.861c9.218,1.102,17.825,5.172,24.525,11.597c-1.039-0.356-2.109-0.611-3.195-0.76
		C50.981,9.404,43.112,57.113,36.211,56.955C31.821,57.107,16.793,24.238,30.44,8.9c1.518-1.696,3.315-3.122,5.314-4.21
		c5.912-1.704,12.083-2.324,18.216-1.83 M39.937,81.274C17.747,77.028,5.879,55.527,9.745,33.212
		c0.159-0.939,0.346-1.864,0.566-2.76c2.649-8.51,7.476-15.462,14.198-20.281C8.322,28.117,26.421,67.208,36.748,68.257
		C49.6,69.058,54.431,28.49,69.521,23.313c11.32-4.251,19.878,12.674,14.702,31.751c-6.157,19.051-23.538,30.192-44.293,26.229
		 M49.463,5.948c6.902,0,12.425,1.587,12.355,3.52c-0.068,1.932-5.661,3.52-12.542,3.507c-6.881-0.015-12.424-1.588-12.354-3.52
		c0.07-1.933,5.661-3.521,12.536-3.521"/>
</g>
</svg>