<svg xmlns="http://www.w3.org/2000/svg" viewBox="0 0 500 102.77"><defs><style>.cls-1{fill:#d60812;}</style></defs><g id="Layer_2" data-name="Layer 2"><g id="Layer_1-2" data-name="Layer 1"><path class="cls-1" d="M35.54,4.64C35,2.84,43.92.49,53.73.06s21.55,1.53,23.74,8C81,18.78,63,34.35,47.19,42,43.33,43.87,41,44.39,40,44.26a1,1,0,0,1-.77-1.59c.55-1.12,3.1-3.41,6.5-5.89,17.74-13,23.51-22.47,20.16-26.32C63.75,8,54.76,6.28,45.42,6.28c-2.54,0-9.2.55-9.88-1.64m19.9,48.79c-5.6-3.84-15.57-5.12-23.78-4.69-7.31.38-19.88,2.71-19.41,5,.45,2.5,8.41,1.73,12.05,1.73,8,0,20.74.48,22.74,5.65,4.33,11.13-25,31.11-31.23,29.19-2.83-.86,5.74-15.39,8.85-20.62,1.85-3.11,4.66-8,2.26-8.34-2.68-.38-5.64,4.24-7.56,6.9A201.88,201.88,0,0,0,4.52,91.48c-1.32,2.5-5.72,10-4.21,11s8.12-.39,16.64-3.77c26.79-10.61,38.86-24.44,42.1-35.86a8.54,8.54,0,0,0-3.61-9.44m40.2-18.18c-8.72-1.44-24.32-2-29.65,6.18-4.12,6.31,3.67,15,10.75,23.34,5.68,6.71,11.87,13.12,9.34,16.87-2.06,3-15.27,3-19.82,3.3-5.53.29-13.49.3-14.87,1.06s-2,2.75,2.73,3.59a134.09,134.09,0,0,0,22.14,2c9.85,0,20.2-1.62,22.45-9.25,1.8-6.12-4.45-12.69-10-19.35-6-7.29-12.11-12.48-11.59-17.65.38-4,8.27-4.25,21.33-4.48,2.72,0,8.14-.18,7.09-2.32-.93-1.9-5-2.52-9.94-3.33M202.29,71c-1.92,11.65-9.8,21.41-24.47,21.41S158.46,82.6,160.38,71s9.81-21.4,24.47-21.4S204.2,59.3,202.29,71m-18.6-14.37c-8.32,0-12.69,4.84-14.25,14.37s1.2,14.37,9.54,14.37S191.66,80.49,193.22,71s-1.2-14.37-9.53-14.37m71-7H247l-7.5,41.05h9.12l7.25-39.65a1.2,1.2,0,0,0-1.2-1.4M233,83.93H215.5l6-33a1.2,1.2,0,0,0-1.2-1.39h-7.68l-7.49,41h28.9l.74-4.09c.34-1.84-.28-2.57-1.85-2.57m52.46-34.39h-22.1l-.11.66c-.52,2.79-.29,6,4.12,6h16.37c6.48,0,9,4.69,7.35,13.48-1.47,8.07-5.82,14.22-12.42,14.22h-8.87L274,60.84h-7.54a1.84,1.84,0,0,0-1.84,1.39l-5.17,28.36h17.3c12.78,0,21.69-6,24.45-21.18,2.13-11.66-2.72-19.87-15.75-19.87m-158.83,9a9.81,9.81,0,0,0,4.18,9.76l13.12,9.15c1.38.95,2.06,1.61,1.89,2.72-.25,1.53-1.05,2.15-3.77,2.15H126.74c-1.63,0-2.51.8-2.81,2.64V90.6H141.8c7.84,0,11.71-4.62,12.5-9.53.73-4.62-.82-7.92-3.8-10l-13.95-9.89c-1.12-.8-1.4-1.23-1.32-1.83.12-1,1-1.42,2.63-1.42h15.93c2,0,3.06-2,3.37-4V49.55H136.09c-4.67,0-8.76,4.18-9.51,8.94m303.56-5c1.82,2.08,2,5.94,1.44,8.31-.63,2.9-3.39,10.22-13.74,11.15l8.72,14.92a3.73,3.73,0,0,1,.59,1.48,1.34,1.34,0,0,1-.52,1.12,1.76,1.76,0,0,1-1.11.33h-2.31L413,73.17l-8.23,0-3.2,17.64h-4.51l7.63-41.06h10.55c6.23,0,11.7.09,14.9,3.75M426,56c-.83-.81-2.09-1.19-4-1.56a19,19,0,0,0-2.29-.21c-2.35-.13-9.33,0-11.47,0l-2.7,14.93,4.74.06a40.66,40.66,0,0,0,9.69-.8c6.42-1.74,9.62-9,6.07-12.41m42.41-5.85a1.77,1.77,0,0,0-1.12-.31h-2L444.15,67.86l2.81-16a1.7,1.7,0,0,0-.61-1.74,2.16,2.16,0,0,0-1.29-.44h-2l-7.63,41.05h4.52l3.34-18.17L460,90.78h2a1.82,1.82,0,0,0,1.12-.33,1.34,1.34,0,0,0,.52-1.12,2.8,2.8,0,0,0-.6-1.48L447.19,70.66l21.14-17.95a2,2,0,0,0,.59-1.48,1.42,1.42,0,0,0-.52-1.12M393.66,72.59c-2.77,11.67-11.18,20.87-24.61,19.84h0C356.57,91,353,80,355.62,69.46c2.91-11.65,11.29-20.86,24.52-19.84h0c12.33,1.44,16,12.44,13.52,23M379.1,53.84c-7.53-.42-16.13,4-19.09,16-2.92,11.74,2.53,17.43,9.91,18.39l.77,0c7.61.4,15.72-4,18.57-16C392,60.5,386.58,54.6,379.1,53.84M500,49.72H483.06c-7.92,0-8.75,6.52-8.79,9.58,0,3.23,2.34,5.79,3.51,6.84l11.53,11.29a6.26,6.26,0,0,1,2,4.41c0,2.5-1.92,4.54-5,4.53,0,0-14.92,0-15.06.07a1.37,1.37,0,0,0-1,1.24h-.05l.05,0v3.08h16.76c7.92,0,8.76-6.52,8.79-9.58v0c0-4.25-3.9-7.52-3.93-7.54L481,62.88a6.18,6.18,0,0,1-2.22-4.22c0-2.51,1.92-4.54,5-4.54,0,0,15.12,0,15.24-.06l.05.11,0-.11a1.4,1.4,0,0,0,1-1.24,0,0,0,0,1,0,0s0-2.5,0-3.08M355.65,51.35a1.64,1.64,0,0,0-.56-1.26,1.77,1.77,0,0,0-1.19-.37h-2.06L335.9,85.83l-4.15-19.34a3.09,3.09,0,0,0-3.22-2.77h-2.68L313.27,85.63l.12-34.17a1.68,1.68,0,0,0-.57-1.33,1.86,1.86,0,0,0-1.27-.41h-2.69V90.77h3.5A4.35,4.35,0,0,0,315,90a7,7,0,0,0,1.77-2l11-19.64,4.59,22.4h2.94a4.6,4.6,0,0,0,4.26-3l15.83-35.61a2.47,2.47,0,0,0,.22-.86"/></g></g></svg>