<svg xmlns="http://www.w3.org/2000/svg" viewBox="0 0 158.51 162.91"><defs><style>.cls-1{fill:#fff;}</style></defs><title>Asset 1</title><g id="Layer_2" data-name="Layer 2"><g id="Layer_1-2" data-name="Layer 1"><path class="cls-1" d="M122.84,114.6V88.09l-12.47-6.92L79.25,99.47l-11.88-7v63.43l11.88,7,79.26-46.64V93.62ZM109,118.23l-15.85,9.33V109.44l11.34-6.68,4.51,2.51Z"/><polygon class="cls-1" points="138.69 13.99 103.03 34.98 43.59 0 23.78 11.66 103.03 58.29 103.03 71.89 158.51 39.24 158.51 25.65 138.69 13.99"/><polygon class="cls-1" points="47.55 39.64 35.66 46.63 35.66 82.89 19.81 73.56 19.81 37.31 31.7 30.31 11.89 18.65 0 25.65 0 116.27 19.81 127.93 19.81 91.68 35.66 101.01 35.66 137.26 55.48 148.92 55.48 58.29 67.37 51.3 47.55 39.64"/></g></g></svg>